<?xml version="1.0" encoding="utf-8"?><svg viewBox="0 0 55 55" xmlns="http://www.w3.org/2000/svg" xmlns:xlink="http://www.w3.org/1999/xlink"><style>:root>svg{display:none}:root>svg:target{display:block}</style><svg viewBox="0 0 11 6" id="arrow" xmlns="http://www.w3.org/2000/svg"><path d="M0 0l5.5 5.5L11 0H0z"/></svg><svg viewBox="0 0 32 32" id="calculator" xmlns="http://www.w3.org/2000/svg"><path d="M0 0v32h32V0H0zm30.02 15.01H16.99V1.98h13.03v13.03zM15.01 1.98v13.03H1.98V1.98h13.03zM1.98 16.99h13.03v13.03H1.98V16.99zm15.01 13.03V16.99h13.03v13.03H16.99z"/><path d="M12.701 24.825H4.289v1.98H12.7v-1.98zM12.701 20.206H4.289v1.98H12.7v-1.98zM19.831 6.22l2.274 2.275-2.159 2.16 1.4 1.399 2.16-2.16 2.274 2.275 1.4-1.4-2.275-2.274 2.16-2.16-1.4-1.4-2.16 2.16-2.274-2.274-1.4 1.4zM7.505 12.539h1.98V9.485H12.7v-1.98H9.485V4.451h-1.98v3.054H4.29v1.98h3.216v3.054zM27.711 22.515H19.3v1.98h8.412v-1.98z"/></svg><svg viewBox="0 0 16 16" id="check" xmlns="http://www.w3.org/2000/svg"><path d="M12 2H4a2 2 0 00-2 2v8a2 2 0 002 2h8a2 2 0 002-2V4a2 2 0 00-2-2zm-1.133 4.407l-3.047 4a.668.668 0 01-1.053.006L5.14 8.34a.667.667 0 111.053-.82L7.28 8.907 9.8 5.573a.67.67 0 111.067.814v.02z"/></svg><svg viewBox="0 0 28 28" id="close" xmlns="http://www.w3.org/2000/svg"><path fill-rule="evenodd" clip-rule="evenodd" d="M17.328 14l9.983-9.983A2.353 2.353 0 1023.983.689L14 10.672 4.017.689A2.353 2.353 0 10.689 4.016L10.672 14 .69 23.983a2.353 2.353 0 003.328 3.327L14 17.327l9.983 9.983a2.353 2.353 0 103.328-3.327L17.328 14z"/></svg><svg viewBox="0 0 41 41" id="phone" xmlns="http://www.w3.org/2000/svg"><g clip-path="url(#eclip0_67_15)"><path d="M11.333 38.156l4.912-4.807c.806-.795 1.293-1.871 1.3-2.871.007-1.08-.426-2.043-1.26-2.889l-2.781-2.819c.08-.12.161-.279.202-.398 0 0 0-.04.04-.04l.04-.04c.243-.358.486-.757.69-1.235 1.536-2.43 3.671-4.696 6.527-6.996 1.367-1.071 2.572-1.823 3.896-2.414a12.886 12.886 0 001.43 1.49l1.232 1.248c.873.966 1.87 1.453 2.91 1.46 1.08.007 2.083-.466 3.05-1.38l3.825-3.774c.362-.357.725-.715 1.087-1.112.766-.795 1.212-1.792 1.22-2.832.007-1.16-.386-2.123-1.26-3.009l-2.9-2.94C34.42 1.632 33.065.943 31.386.772h-.04c-2.079-.095-4.001.212-6.407 1.076-3.77 1.375-7.304 3.47-11.205 6.604-4.668 4.089-8.3 8.704-10.814 13.847l-.04.12C2.188 23.933.89 26.805.667 30.003l-.003.44c-.015 2.12.655 3.725 2.086 5.055.556.483 1.073 1.007 1.55 1.45.277.362.556.604.834.846l.318.322.08.08c1.828 1.693 4.068 1.708 5.8-.04zm-4.43-1.43l-.398-.403-.08-.04c-.238-.202-.437-.364-.596-.565l-.119-.12a34.14 34.14 0 00-1.67-1.612c-.993-.926-1.426-1.97-1.415-3.53l.002-.32c.219-2.798 1.356-5.35 2.046-6.866l.041-.08c2.393-4.903 5.863-9.32 10.29-13.17 3.7-3.015 7.073-4.992 10.602-6.288 2.206-.785 3.807-1.055 5.607-.962 1.159.127 2.076.574 2.79 1.378l2.94 2.98c.477.484.674.965.67 1.565-.004.52-.247.998-.65 1.436l-.04.04c-.323.357-.685.715-1.047 1.072l-3.826 3.774c-.725.716-1.286.832-1.606.83-.32-.003-.8-.086-1.474-.85l-1.271-1.289a15.808 15.808 0 01-1.55-1.65l-.079-.081-.119-.08c-.478-.364-.917-.407-1.559-.211l-.16.039-.16.038c-1.485.67-2.85 1.501-4.378 2.69-3.057 2.46-5.354 4.925-7.012 7.553l-.08.12a19.37 19.37 0 01-.487.917c-.12.119-.202.278-.243.398-.08.16-.121.28-.202.359l-.202.278v.08l-.041.12c-.082.24-.083.4-.084.52-.002.4.155.76.513 1.123l2.98 3.02c.476.483.673.925.67 1.485-.005.6-.369 1.157-.69 1.475l-4.914 4.847c-.966.953-1.966.987-3-.02z"/></g><defs><clipPath id="eclip0_67_15"><path transform="rotate(90.388 20 20.135)" d="M0 0h40v40H0z"/></clipPath></defs></svg><svg viewBox="0 0 55 55" id="vk" xmlns="http://www.w3.org/2000/svg"><g clip-path="url(#fclip0_67_12)"><path d="M54.984 0H.016A.016.016 0 000 .016v54.968c0 .009.007.016.016.016h54.968a.016.016 0 00.016-.016V.016A.016.016 0 0054.984 0z"/><path d="M29.434 38.994c.537-.107 1.503-.322 1.503-1.611 0 0-.107-3.223 1.397-3.653 1.504-.43 3.438 3.116 5.478 4.512 1.504.967 2.686.86 2.686.86l5.479-.108s2.793-.215 1.504-2.47c-.108-.215-.967-1.612-4.19-4.512-3.33-3.223-2.793-2.686 1.182-8.164 2.47-3.33 3.545-5.371 3.222-6.123-.43-.752-2.148-.645-2.148-.645h-6.123c-.645 0-.967.108-1.29.645 0 0-.966 2.685-2.255 4.834-2.686 4.619-3.76 4.834-4.297 4.511-.967-.537-.752-2.578-.752-3.974 0-4.834.752-6.553-1.396-6.983-1.397-.214-6.338-.43-7.842.323-.752.43-1.182 1.181-.86 1.289.323 0 1.29.107 1.827.752.859 1.396.966 8.056-.215 8.7-1.612 1.182-5.694-6.66-6.66-9.238-.215-.644-.537-.752-1.29-.966H8.486c-.644 0-1.611.107-1.181 1.396 2.9 6.016 8.916 20.733 19.765 20.625h2.364z"/></g><defs><clipPath id="fclip0_67_12"><path d="M0 0h55v55H0z"/></clipPath></defs></svg><svg viewBox="0 0 54 54" id="zoom" xmlns="http://www.w3.org/2000/svg"><path d="M33.75 0C22.567 0 13.5 9.067 13.5 20.25c0 4.68 1.601 8.974 4.268 12.403L.742 49.678A2.522 2.522 0 000 51.468c0 .649.248 1.297.743 1.791.492.495 1.14.741 1.788.741.648 0 1.296-.246 1.789-.74l17.027-17.028C24.776 38.9 29.07 40.5 33.75 40.5 44.933 40.5 54 31.433 54 20.25S44.933 0 33.75 0zm0 35.438c-8.375 0-15.188-6.813-15.188-15.188S25.375 5.062 33.75 5.062s15.188 6.813 15.188 15.188-6.813 15.188-15.188 15.188z"/></svg></svg>