<svg width="32" height="32" viewBox="0 0 32 32" fill="none" xmlns="http://www.w3.org/2000/svg">
<path d="M0 0V32H32V0H0ZM30.0206 15.0103H16.9897V1.97938H30.0206V15.0103ZM15.0103 1.97938V15.0103H1.97938V1.97938H15.0103ZM1.97938 16.9897H15.0103V30.0206H1.97938V16.9897ZM16.9897 30.0206V16.9897H30.0206V30.0206H16.9897Z" fill="white"/>
<path d="M12.701 24.8247H4.28867V26.8041H12.701V24.8247Z" fill="white"/>
<path d="M12.701 20.2063H4.28867V22.1857H12.701V20.2063Z" fill="white"/>
<path d="M19.8311 6.22042L22.1055 8.49486L19.946 10.6544L21.3456 12.054L23.5051 9.89448L25.7796 12.1689L27.1792 10.7693L24.9048 8.49486L27.0643 6.33536L25.6647 4.93574L23.5051 7.09524L21.2307 4.8208L19.8311 6.22042Z" fill="white"/>
<path d="M7.50516 12.5387H9.48454V9.48461H12.701V7.50523H9.48454V4.45117H7.50516V7.50523H4.28867V9.48461H7.50516V12.5387Z" fill="white"/>
<path d="M27.7113 22.5154H19.299V24.4948H27.7113V22.5154Z" fill="white"/>
</svg>
