<svg width="16" height="16" viewBox="0 0 16 16" fill="none" xmlns="http://www.w3.org/2000/svg">
<path d="M12 2H4C3.46957 2 2.96086 2.21071 2.58579 2.58579C2.21071 2.96086 2 3.46957 2 4V12C2 12.5304 2.21071 13.0391 2.58579 13.4142C2.96086 13.7893 3.46957 14 4 14H12C12.5304 14 13.0391 13.7893 13.4142 13.4142C13.7893 13.0391 14 12.5304 14 12V4C14 3.46957 13.7893 2.96086 13.4142 2.58579C13.0391 2.21071 12.5304 2 12 2ZM10.8667 6.40667L7.82 10.4067C7.75789 10.4873 7.67814 10.5527 7.58684 10.5978C7.49555 10.6429 7.39515 10.6664 7.29333 10.6667C7.19207 10.6672 7.09202 10.6447 7.00076 10.6008C6.90951 10.5569 6.82945 10.4928 6.76667 10.4133L5.14 8.34C5.03126 8.20032 4.98246 8.02316 5.00434 7.8475C5.02622 7.67185 5.11699 7.51207 5.25667 7.40333C5.39635 7.29459 5.5735 7.2458 5.74916 7.26768C5.92482 7.28956 6.08459 7.38032 6.19333 7.52L7.28 8.90667L9.8 5.57333C9.8534 5.50329 9.92008 5.44446 9.99622 5.40019C10.0724 5.35592 10.1565 5.32708 10.2438 5.31532C10.3311 5.30356 10.4198 5.3091 10.5049 5.33164C10.5901 5.35418 10.67 5.39326 10.74 5.44667C10.81 5.50007 10.8689 5.56675 10.9131 5.64289C10.9574 5.71903 10.9863 5.80315 10.998 5.89043C11.0098 5.97772 11.0042 6.06647 10.9817 6.15161C10.9592 6.23676 10.9201 6.31663 10.8667 6.38667V6.40667Z" fill="#0C4370"/>
</svg>
