<svg width="28" height="28" viewBox="0 0 28 28" fill="none" xmlns="http://www.w3.org/2000/svg">
<path fill-rule="evenodd" clip-rule="evenodd" d="M17.3279 13.9996L27.3109 4.01654C28.2299 3.09759 28.2299 1.60768 27.3109 0.688856C26.392 -0.230095 24.9022 -0.230095 23.9833 0.688856L14.0001 10.672L4.01692 0.688725C3.09797 -0.230226 1.60819 -0.230226 0.689237 0.688725C-0.229583 1.60768 -0.229583 3.09759 0.689237 4.01641L10.6724 13.9994L0.689237 23.9826C-0.229583 24.9016 -0.229583 26.3915 0.689237 27.3103C1.60819 28.2292 3.09797 28.2292 4.01692 27.3103L14.0001 17.3271L23.9833 27.3103C24.9021 28.2292 26.392 28.2292 27.3109 27.3103C28.2299 26.3913 28.2299 24.9016 27.3109 23.9826L17.3279 13.9996Z" fill="#0C4370"/>
</svg>
