<svg width="41" height="41" viewBox="0 0 41 41" fill="none" xmlns="http://www.w3.org/2000/svg">
<g clip-path="url(#clip0_67_15)">
<path d="M11.3328 38.1557L16.2454 33.3489C17.0508 32.5543 17.5381 31.4776 17.5449 30.4776C17.5522 29.3976 17.1187 28.4347 16.2844 27.589L13.5035 24.7701C13.5843 24.6507 13.6654 24.4912 13.7062 24.3715C13.7062 24.3715 13.7064 24.3315 13.7464 24.3318L13.7867 24.292C14.0291 23.9337 14.2718 23.5353 14.4751 23.0567C16.0116 20.627 18.147 18.3614 21.0026 16.0607C22.3699 14.9899 23.575 14.2381 24.8991 13.647C25.4147 14.2905 25.9314 14.7741 26.329 15.1368L27.5606 16.3851C28.4341 17.3511 29.4308 17.8378 30.4708 17.8449C31.5507 17.8522 32.554 17.379 33.5202 16.4655L37.3458 12.6913C37.7082 12.3338 38.0707 11.9762 38.4334 11.5787C39.1988 10.7838 39.6455 9.78682 39.6526 8.74685C39.6604 7.58687 39.2669 6.62419 38.3929 5.73825L35.4928 2.79854C34.4207 1.63125 33.0653 0.942057 31.3864 0.770683L31.3464 0.770412C29.267 0.676327 27.3449 0.983314 24.939 1.84704C21.1696 3.22154 17.6353 5.31766 13.734 8.45131C9.06619 12.5398 5.43485 17.1553 2.91996 22.2984L2.87915 22.4181C2.18887 23.9335 0.889395 26.8047 0.667727 30.0033L0.664747 30.4433C0.65039 32.5632 1.31954 34.1678 2.75057 35.4975C3.3073 35.9813 3.82377 36.5048 4.30078 36.9481C4.57833 37.31 4.8567 37.5519 5.13507 37.7937L5.45289 38.1159L5.53235 38.1964C7.36093 39.8889 9.60088 39.904 11.3328 38.1557ZM6.90234 36.7257L6.50506 36.323L6.42533 36.2824C6.18669 36.0808 5.98778 35.9195 5.82914 35.7184L5.70995 35.5976C5.23322 35.1143 4.67702 34.5506 4.04083 33.9862C3.04708 33.0595 2.61414 32.0165 2.6247 30.4566L2.62687 30.1366C2.84583 27.338 3.98314 24.7856 4.67342 23.2703L4.71396 23.1906C7.10723 18.2867 10.5772 13.8701 15.0034 10.0199C18.7039 7.00493 22.0774 5.02773 25.6062 3.7316C27.8116 2.94652 29.4135 2.67736 31.2129 2.76955C32.372 2.89741 33.289 3.34363 34.0036 4.14849L36.9435 7.12846C37.4202 7.6117 37.617 8.09305 37.6129 8.69303C37.6094 9.21302 37.3661 9.69138 36.9632 10.1287L36.9229 10.1684C36.6005 10.5262 36.238 10.8838 35.8756 11.2413L32.05 15.0155C31.3251 15.7306 30.7643 15.8468 30.4443 15.8446C30.1243 15.8425 29.6449 15.7592 28.97 14.9946L27.6987 13.706C27.2217 13.2628 26.7052 12.7393 26.1499 12.0555L26.0704 11.9749L25.951 11.8941C25.4734 11.5309 25.0337 11.4879 24.3923 11.6836L24.2321 11.7225L24.0718 11.7614C22.5872 12.4314 21.2216 13.2621 19.6935 14.4518C16.6368 16.9112 14.34 19.3757 12.6822 22.0045L12.6014 22.1239C12.4392 22.4429 12.277 22.7618 12.1151 23.0407C11.9943 23.1599 11.9133 23.3193 11.8724 23.439C11.7914 23.5985 11.7505 23.7182 11.67 23.7977L11.4681 24.0763L11.4676 24.1563L11.4268 24.276C11.3451 24.5155 11.3441 24.6755 11.3432 24.7955C11.3405 25.1955 11.4981 25.5566 11.8556 25.919L14.8353 28.9392C15.312 29.4225 15.509 29.8638 15.5052 30.4238C15.5012 31.0238 15.1374 31.5813 14.8152 31.8992L9.90227 36.746C8.93579 37.6995 7.93555 37.7327 6.90234 36.7257Z" fill="white"/>
</g>
<defs>
<clipPath id="clip0_67_15">
<rect width="40" height="40" fill="white" transform="translate(40.27 0.270874) rotate(90.388)"/>
</clipPath>
</defs>
</svg>
