<svg width="55" height="55" viewBox="0 0 55 55" fill="none" xmlns="http://www.w3.org/2000/svg">
<g clip-path="url(#clip0_67_12)">
<path d="M54.9839 0H0.0161133C0.00721416 0 0 0.00721416 0 0.0161133V54.9839C0 54.9928 0.00721416 55 0.0161133 55H54.9839C54.9928 55 55 54.9928 55 54.9839V0.0161133C55 0.00721416 54.9928 0 54.9839 0Z" fill="#0C4370"/>
<path d="M29.4336 38.9942C29.9707 38.8868 30.9375 38.6719 30.9375 37.3829C30.9375 37.3829 30.8301 34.1602 32.334 33.7305C33.8379 33.3008 35.7715 36.8457 37.8125 38.2422C39.3164 39.209 40.4981 39.1016 40.4981 39.1016L45.9766 38.9942C45.9766 38.9942 48.7696 38.7793 47.4805 36.5235C47.3731 36.3086 46.5137 34.9122 43.291 32.0118C39.961 28.7891 40.4981 29.3262 44.4727 23.8477C46.9434 20.5176 48.0176 18.4766 47.6953 17.7247C47.2656 16.9727 45.5469 17.0801 45.5469 17.0801H39.4238C38.7793 17.0801 38.4571 17.1875 38.1348 17.7247C38.1348 17.7247 37.168 20.4102 35.8789 22.5586C33.1934 27.1778 32.1192 27.3926 31.5821 27.0704C30.6153 26.5332 30.8301 24.4922 30.8301 23.0957C30.8301 18.2618 31.5821 16.543 29.4336 16.1133C28.0371 15.8985 23.0957 15.6836 21.5918 16.4356C20.8399 16.8653 20.4102 17.6172 20.7324 17.7247C21.0547 17.7247 22.0215 17.8321 22.5586 18.4766C23.418 19.8731 23.5254 26.5332 22.3438 27.1778C20.7324 28.3594 16.6504 20.5176 15.6836 17.9395C15.4688 17.295 15.1465 17.1875 14.3945 16.9727H8.48635C7.84181 16.9727 6.87502 17.0801 7.3047 18.3692C10.2051 24.3848 16.2207 39.1016 27.0703 38.9942H29.4336Z" fill="white"/>
</g>
<defs>
<clipPath id="clip0_67_12">
<rect width="55" height="55" fill="white"/>
</clipPath>
</defs>
</svg>
