<svg width="54" height="54" viewBox="0 0 54 54" fill="none" xmlns="http://www.w3.org/2000/svg">
<path d="M33.75 0C22.567 0 13.5 9.06697 13.5 20.25C13.5 24.9295 15.1014 29.2241 17.7677 32.6531L0.7425 49.6783C0.248118 50.1728 0 50.819 0 51.4687C0 52.1167 0.248118 52.7647 0.7425 53.2592C1.23529 53.7536 1.88321 54 2.53129 54C3.17938 54 3.82729 53.7536 4.32 53.2592L21.3469 36.2322C24.7759 38.8986 29.0706 40.5 33.75 40.5C44.933 40.5 54 31.433 54 20.25C54 9.06697 44.933 0 33.75 0ZM33.75 35.4375C25.375 35.4375 18.5625 28.625 18.5625 20.25C18.5625 11.875 25.375 5.0625 33.75 5.0625C42.125 5.0625 48.9375 11.875 48.9375 20.25C48.9375 28.625 42.125 35.4375 33.75 35.4375Z" fill="white"/>
</svg>
