<svg width="89" height="89" viewBox="0 0 89 89" fill="none" xmlns="http://www.w3.org/2000/svg">
<path d="M44.5938 88.1875C68.6699 88.1875 88.1875 68.6699 88.1875 44.5938C88.1875 20.5176 68.6699 1 44.5938 1C20.5176 1 1 20.5176 1 44.5938C1 68.6699 20.5176 88.1875 44.5938 88.1875Z" stroke="#0C4370"/>
<path d="M29.129 56.4286H28C28 58.9563 30.1452 61 32.7984 61H63V33.0336H33.3629V29H32.7984C30.1452 29 28 31.0437 28 33.5714V56.4286H29.129C29.129 54.4924 30.7661 52.9328 32.7984 52.9328H33.3629V34.1092H61.871V59.9244H32.7984C30.7661 59.9244 29.129 58.3647 29.129 56.4286ZM32.2339 51.884C30.9919 52.0185 29.8911 52.6101 29.129 53.4706V33.5714C29.129 31.8235 30.4839 30.3714 32.2339 30.1294V51.884Z" fill="#0C4370"/>
<path d="M56.5081 36.2605H53.121V54.4118L54.8145 57.6386L56.5081 54.4118V36.2605ZM55.379 37.3361V40.2941H54.25V37.3361H55.379ZM54.8145 55.2185L54.25 54.1428V41.3697H55.379V54.1428L54.8145 55.2185Z" fill="#0C4370"/>
<path d="M39.2903 49.1681V50.2437H41.5484L40.1371 57.6924L41.2379 57.8807L42.6774 50.2437H46.0645L47.5041 57.8807L48.6049 57.6924L47.1936 50.2437H49.4516V49.1681H46.996L46.3468 45.6185C47.2218 45.0269 47.7581 44.0319 47.7581 42.9832C47.7581 41.3966 46.5444 40.0521 44.9355 39.8101V36.2605H43.8065V39.8101C42.1976 40.079 40.9839 41.3966 40.9839 42.9832C40.9839 44.0319 41.5202 45 42.3952 45.6185L41.746 49.1681H39.2903ZM43.2984 44.8655C42.5645 44.4891 42.1129 43.763 42.1129 42.9832C42.1129 41.8 43.1291 40.8319 44.371 40.8319C45.6129 40.8319 46.6291 41.8 46.6291 42.9832C46.6291 43.763 46.1774 44.4891 45.4436 44.8655L45.0766 45.0538L45.867 49.1681H42.875L43.6371 45.0538L43.2984 44.8655Z" fill="#0C4370"/>
</svg>
