<svg width="89" height="89" viewBox="0 0 89 89" fill="none" xmlns="http://www.w3.org/2000/svg">
<g clip-path="url(#clip0_129_65)">
<path d="M58.3594 30H31.6406C31.2055 30 30.7882 30.1729 30.4805 30.4805C30.1729 30.7882 30 31.2055 30 31.6406V50.8594C30 51.2945 30.1729 51.7118 30.4805 52.0195C30.7882 52.3271 31.2055 52.5 31.6406 52.5H40.5469V58.5938H36.7969C36.6104 58.5938 36.4316 58.6678 36.2997 58.7997C36.1678 58.9316 36.0938 59.1104 36.0938 59.2969C36.0938 59.4834 36.1678 59.6622 36.2997 59.7941C36.4316 59.9259 36.6104 60 36.7969 60H53.2031C53.3896 60 53.5684 59.9259 53.7003 59.7941C53.8322 59.6622 53.9062 59.4834 53.9062 59.2969C53.9062 59.1104 53.8322 58.9316 53.7003 58.7997C53.5684 58.6678 53.3896 58.5938 53.2031 58.5938H49.4531V52.5H58.3594C58.7945 52.5 59.2118 52.3271 59.5195 52.0195C59.8271 51.7118 60 51.2945 60 50.8594V31.6406C60 31.2055 59.8271 30.7882 59.5195 30.4805C59.2118 30.1729 58.7945 30 58.3594 30V30ZM31.6406 31.4062H58.3594C58.4215 31.4062 58.4811 31.4309 58.5251 31.4749C58.5691 31.5189 58.5938 31.5785 58.5938 31.6406V47.1094H31.4062V31.6406C31.4062 31.5785 31.4309 31.5189 31.4749 31.4749C31.5189 31.4309 31.5785 31.4062 31.6406 31.4062V31.4062ZM48.0469 58.5938H41.9531V52.5H48.0469V58.5938ZM58.3594 51.0938H31.6406C31.5785 51.0938 31.5189 51.0691 31.4749 51.0251C31.4309 50.9811 31.4062 50.9215 31.4062 50.8594V48.5156H58.5938V50.8594C58.5938 50.9215 58.5691 50.9811 58.5251 51.0251C58.4811 51.0691 58.4215 51.0938 58.3594 51.0938Z" fill="#0C4370"/>
</g>
<path d="M44.5938 88.1875C68.6699 88.1875 88.1875 68.6699 88.1875 44.5938C88.1875 20.5176 68.6699 1 44.5938 1C20.5176 1 1 20.5176 1 44.5938C1 68.6699 20.5176 88.1875 44.5938 88.1875Z" stroke="#0C4370"/>
<defs>
<clipPath id="clip0_129_65">
<rect width="30" height="30" fill="white" transform="translate(30 30)"/>
</clipPath>
</defs>
</svg>
