<svg width="89" height="89" viewBox="0 0 89 89" fill="none" xmlns="http://www.w3.org/2000/svg">
<path d="M61.8792 51.7224C61.5403 50.8709 60.919 50.4305 60.0435 50.4305C59.7328 50.4305 59.3656 50.4893 58.9703 50.6067L52.9546 52.7793C52.9546 52.7499 52.9546 52.7499 52.9546 52.7206C52.9546 52.6912 52.9546 52.6619 52.9546 52.6325C52.9546 52.5738 52.9546 52.5444 52.9546 52.4857C52.9546 52.4563 52.9546 52.427 52.9546 52.427V52.3976V52.3683C52.9546 52.3095 52.9264 52.2215 52.9264 52.1627C52.9264 52.1627 52.9264 52.1627 52.9264 52.1334C52.6722 50.9884 51.6555 50.1369 50.4693 50.1369H45.6964C43.4935 47.2304 38.3816 47.201 38.1557 47.201H34.4842V45.7917H27V58.7393H34.4842V57.5062L43.7477 60.5595C43.8042 60.5889 45.188 60.9999 46.7696 60.9999C47.7298 60.9999 48.5771 60.8531 49.3114 60.5302C51.1754 59.7375 58.6596 55.5684 60.919 54.306C61.5403 53.9243 62.3593 52.9261 61.8792 51.7224ZM33.3545 57.5355H28.1297V46.9368H33.3545V47.1423V57.0658V57.5355ZM60.3541 53.249C58.123 54.5115 50.667 58.6218 48.8595 59.4145C48.2947 59.6494 47.5886 59.7962 46.7696 59.7962C45.3292 59.7962 44.0583 59.4145 44.0583 59.4145L34.456 56.2731V48.3167H38.1275C38.1839 48.3167 43.1546 48.346 44.9056 51.0177L45.0751 51.282H50.4128C51.1189 51.282 51.712 51.8104 51.7967 52.5151V52.5444C51.7967 52.6031 51.7967 52.6325 51.7967 52.6912C51.7967 52.7499 51.7967 52.8087 51.7685 52.8674C51.7685 52.8967 51.7685 52.9261 51.7685 52.9555C51.7685 53.0142 51.7402 53.0729 51.712 53.1316C51.712 53.161 51.712 53.1903 51.6837 53.1903C51.6555 53.2784 51.6273 53.3371 51.5708 53.3958C51.3448 53.7482 50.9494 53.983 50.4976 53.983H43.1546V55.1574H50.4976C51.2601 55.1574 51.9662 54.7757 52.418 54.1885L59.2809 51.7224C59.5633 51.6343 59.8175 51.6049 60.0435 51.6049C60.4671 51.6049 60.6648 51.7517 60.8342 52.1627C61.0602 52.7206 60.5236 53.161 60.3541 53.249Z" fill="#0C4370"/>
<path d="M54.4232 40.008C54.6491 40.0961 54.9033 40.1548 55.1575 40.1548C56.0613 40.1548 56.8803 39.5676 57.1909 38.6869C57.5863 37.5125 57.0215 36.25 55.8918 35.8096C55.6659 35.7216 55.4117 35.6628 55.1575 35.6628C54.2538 35.6628 53.4347 36.25 53.1241 37.1308C52.9264 37.6886 52.9546 38.3052 53.2088 38.8337C53.4347 39.3915 53.8584 39.8025 54.4232 40.008ZM54.1973 37.5418C54.3385 37.1308 54.7339 36.8372 55.1575 36.8372C55.2705 36.8372 55.3834 36.8666 55.4964 36.8959C56.033 37.1015 56.3154 37.718 56.1177 38.2465C55.9765 38.6575 55.5811 38.9511 55.1575 38.9511C55.0445 38.9511 54.9316 38.9217 54.8186 38.8924C54.5644 38.8043 54.3667 38.5988 54.2538 38.3346C54.1408 38.0703 54.0843 37.8061 54.1973 37.5418Z" fill="#0C4370"/>
<path d="M37.5908 34.3416L38.6358 33.8425L39.1159 34.9288L41.5448 35.839L42.5897 35.3399L43.0698 36.4262L45.301 37.2776C45.4704 40.0374 47.1932 42.5623 49.848 43.5605C50.6105 43.8541 51.4013 44.0009 52.2203 44.0009C55.1293 44.0009 57.7276 42.0925 58.7161 39.274C60.0152 35.5454 58.1795 31.4057 54.5927 30.0552C53.8301 29.7616 53.0394 29.6148 52.2203 29.6148C50.2999 29.6148 48.5206 30.4662 47.2215 31.8461L37.0542 28L33.7781 29.145L35.0773 33.4021L37.5908 34.3416ZM52.2486 30.7891C52.9264 30.7891 53.576 30.9066 54.2255 31.1415C57.2192 32.2865 58.7725 35.7509 57.6993 38.863C56.8803 41.2411 54.6774 42.8265 52.2486 42.8265C51.5708 42.8265 50.9212 42.7091 50.2716 42.4742C47.2779 41.3292 45.7246 37.8648 46.7978 34.7527C47.6451 32.4039 49.848 30.7891 52.2486 30.7891ZM46.5154 32.8149C46.2047 33.2847 45.9506 33.8132 45.7529 34.371C45.5552 34.9288 45.4422 35.4867 45.3857 36.0738L43.9454 35.516L43.1828 33.7838L41.5165 34.5765L39.9632 33.9893L39.2007 32.2571L37.5344 33.0498L36.0375 32.5214L35.4162 30.4956L44.2843 33.8425L44.6797 32.7269L36.2352 29.5561L37.0825 29.2625L46.5154 32.8149Z" fill="#0C4370"/>
<path d="M44.5938 88.1875C68.6699 88.1875 88.1875 68.6699 88.1875 44.5938C88.1875 20.5176 68.6699 1 44.5938 1C20.5176 1 1 20.5176 1 44.5938C1 68.6699 20.5176 88.1875 44.5938 88.1875Z" stroke="#0C4370"/>
</svg>
