<svg width="89" height="89" viewBox="0 0 89 89" fill="none" xmlns="http://www.w3.org/2000/svg">
<path d="M61.6662 39.7787L59.1912 35.8862C59.9851 34.6962 60.4223 33.304 60.4512 31.8737C60.4639 31.8045 60.469 31.7341 60.4662 31.6637C60.4678 29.6616 59.6853 27.7385 58.2862 26.3064C56.8872 24.8743 54.9828 24.0471 52.9813 24.0019C50.9797 23.9568 49.04 24.6974 47.5779 26.0651C46.1157 27.4327 45.2473 29.3186 45.1587 31.3187L39.9162 33.6362C39.401 33.8595 38.9592 34.2234 38.6412 34.6862L27.1362 51.2387C27.056 51.3513 27.0092 51.4842 27.0012 51.6222C26.9933 51.7602 27.0245 51.8977 27.0912 52.0187C28.3928 54.4984 30.2173 56.6658 32.4387 58.3712C34.6303 60.0433 37.1666 61.2065 39.8637 61.7762C39.9158 61.7849 39.9684 61.79 40.0212 61.7912C40.1503 61.7909 40.2771 61.7569 40.3889 61.6924C40.5008 61.6279 40.5938 61.5353 40.6587 61.4237L43.4112 56.8337V64.0937C43.4109 64.2372 43.4516 64.3777 43.5288 64.4987C43.6059 64.6197 43.716 64.716 43.8462 64.7762C46.6514 66.0805 49.7076 66.7562 52.8012 66.7562C55.8948 66.7562 58.951 66.0805 61.7562 64.7762C61.887 64.7168 61.9978 64.6207 62.075 64.4995C62.1522 64.3784 62.1926 64.2374 62.1912 64.0937V41.5787C62.1919 40.9409 62.0097 40.3162 61.6662 39.7787ZM52.8012 25.5062C54.4378 25.5096 56.0062 26.1623 57.1621 27.3209C58.318 28.4796 58.9668 30.0496 58.9662 31.6862C58.96 31.7234 58.9575 31.7611 58.9587 31.7987C58.9367 32.7257 58.706 33.6358 58.2837 34.4612L56.9937 32.4287C56.6137 31.8325 56.0893 31.3419 55.4692 31.0023C54.849 30.6628 54.1532 30.4853 53.4462 30.4862H52.0887C51.5833 30.4869 51.0824 30.581 50.6112 30.7637C50.0998 30.4268 49.5126 30.2223 48.9025 30.1686C48.2925 30.115 47.6786 30.2138 47.1162 30.4562L46.7337 30.6287C46.9816 29.1979 47.7257 27.9001 48.8353 26.9633C49.9449 26.0266 51.3491 25.5107 52.8012 25.5062ZM43.4112 41.8562V53.9237L39.6537 60.1862C37.3658 59.6308 35.218 58.6067 33.3462 57.1787C31.4162 55.6982 29.8105 53.8373 28.6287 51.7112L39.8787 35.5412C40.0372 35.3075 40.258 35.123 40.5162 35.0087L47.7237 31.8287C48.1627 31.6439 48.6506 31.6096 49.1112 31.7312C48.8693 31.9646 48.6599 32.2295 48.4887 32.5187L43.8912 40.1312C43.5798 40.6529 43.414 41.2486 43.4112 41.8562ZM60.6912 63.6137C58.1971 64.6789 55.5132 65.2281 52.8012 65.2281C50.0892 65.2281 47.4053 64.6789 44.9112 63.6137V41.8562C44.9138 41.5202 45.0071 41.1911 45.1812 40.9037L49.7712 33.2912C50.0139 32.8939 50.3543 32.5653 50.76 32.3369C51.1657 32.1084 51.6231 31.9877 52.0887 31.9862H53.4462C53.9012 31.9848 54.3492 32.0989 54.748 32.318C55.1468 32.5371 55.4834 32.8539 55.7262 33.2387L57.3612 35.8037C56.7873 36.4442 56.0841 36.9557 55.2982 37.3048C54.5122 37.6538 53.6612 37.8324 52.8012 37.8287C52.4056 37.8234 52.0113 37.7807 51.6237 37.7012C51.7812 37.4104 52.014 37.1671 52.2976 36.9969C52.5813 36.8267 52.9054 36.7358 53.2362 36.7337C53.4351 36.7337 53.6259 36.6547 53.7665 36.5141C53.9072 36.3734 53.9862 36.1826 53.9862 35.9837C53.9862 35.7848 53.9072 35.5941 53.7665 35.4534C53.6259 35.3127 53.4351 35.2337 53.2362 35.2337C52.3501 35.2337 51.5002 35.5858 50.8736 36.2124C50.247 36.839 49.895 37.6888 49.895 38.575C49.895 39.4611 50.247 40.311 50.8736 40.9376C51.5002 41.5642 52.3501 41.9162 53.2362 41.9162C53.4351 41.9162 53.6259 41.8372 53.7665 41.6966C53.9072 41.5559 53.9862 41.3651 53.9862 41.1662C53.9862 40.9673 53.9072 40.7766 53.7665 40.6359C53.6259 40.4952 53.4351 40.4162 53.2362 40.4162C52.8607 40.4158 52.4942 40.3007 52.1859 40.0862C51.8776 39.8717 51.6422 39.5682 51.5112 39.2162C52.7113 39.425 53.9439 39.3425 55.1055 38.9757C56.267 38.609 57.3236 37.9687 58.1862 37.1087L60.4062 40.5887C60.5938 40.8847 60.6927 41.2283 60.6912 41.5787V63.6137Z" fill="#0C4370"/>
<path d="M49.3437 45.6062C48.8545 45.6077 48.3768 45.7541 47.9707 46.027C47.5647 46.2998 47.2487 46.6869 47.0625 47.1393C46.8763 47.5916 46.8284 48.089 46.9247 48.5686C47.021 49.0482 47.2574 49.4886 47.6038 49.8339C47.9502 50.1793 48.3912 50.4143 48.8711 50.5092C49.351 50.6041 49.8483 50.5546 50.3001 50.3671C50.7519 50.1795 51.138 49.8623 51.4096 49.4555C51.6813 49.0486 51.8262 48.5704 51.8262 48.0812C51.8262 47.7556 51.762 47.4331 51.6371 47.1323C51.5123 46.8316 51.3293 46.5584 51.0987 46.3285C50.868 46.0985 50.5943 45.9164 50.2932 45.7925C49.992 45.6685 49.6694 45.6052 49.3437 45.6062ZM49.3437 49.0562C49.1512 49.0547 48.9634 48.9963 48.8041 48.8883C48.6448 48.7802 48.5209 48.6274 48.4483 48.4492C48.3757 48.2709 48.3574 48.0751 48.3959 47.8864C48.4343 47.6978 48.5278 47.5248 48.6644 47.3892C48.8011 47.2536 48.9748 47.1615 49.1637 47.1244C49.3527 47.0874 49.5483 47.1072 49.726 47.1812C49.9038 47.2552 50.0556 47.3801 50.1624 47.5403C50.2692 47.7005 50.3262 47.8887 50.3262 48.0812C50.3262 48.2099 50.3008 48.3373 50.2513 48.4561C50.2018 48.5749 50.1293 48.6827 50.038 48.7733C49.9467 48.8639 49.8383 48.9356 49.7191 48.9842C49.6 49.0327 49.4724 49.0572 49.3437 49.0562Z" fill="#0C4370"/>
<path d="M56.2587 54.2388C55.7685 54.238 55.289 54.3827 54.881 54.6544C54.473 54.9262 54.1547 55.3128 53.9664 55.7655C53.7781 56.2181 53.7282 56.7164 53.8231 57.1974C53.9181 57.6784 54.1535 58.1204 54.4996 58.4676C54.8457 58.8148 55.2871 59.0515 55.7677 59.1479C56.2484 59.2443 56.7469 59.1959 57.2001 59.009C57.6533 58.8221 58.0409 58.505 58.3139 58.0978C58.5869 57.6905 58.733 57.2115 58.7337 56.7213C58.7333 56.0643 58.4727 55.4342 58.0089 54.969C57.545 54.5037 56.9157 54.2412 56.2587 54.2388ZM56.2587 57.6963C56.0648 57.697 55.8751 57.6401 55.7136 57.5329C55.552 57.4256 55.426 57.2728 55.3515 57.0938C55.2769 56.9148 55.2572 56.7177 55.2949 56.5275C55.3325 56.3373 55.4258 56.1626 55.5629 56.0254C55.7 55.8883 55.8748 55.795 56.065 55.7574C56.2552 55.7198 56.4523 55.7395 56.6313 55.814C56.8103 55.8885 56.9631 56.0146 57.0704 56.1761C57.1776 56.3376 57.2345 56.5274 57.2337 56.7213C57.2337 56.9799 57.131 57.2279 56.9482 57.4107C56.7653 57.5935 56.5173 57.6963 56.2587 57.6963Z" fill="#0C4370"/>
<path d="M57.1159 46.6337C56.9613 46.5087 56.7633 46.4503 56.5655 46.4712C56.3678 46.4922 56.1865 46.5908 56.0614 46.7454L48.3784 56.2479C48.3165 56.3246 48.2702 56.4127 48.2423 56.5073C48.2145 56.6018 48.2055 56.7009 48.2159 56.7989C48.2263 56.897 48.2559 56.992 48.303 57.0786C48.3502 57.1651 48.4139 57.2416 48.4906 57.3035C48.5672 57.3655 48.6554 57.4117 48.7499 57.4396C48.8445 57.4675 48.9436 57.4765 49.0416 57.4661C49.1396 57.4557 49.2346 57.4261 49.3212 57.3789C49.4078 57.3318 49.4842 57.2681 49.5462 57.1914L57.2292 47.6889C57.2911 47.6122 57.3373 47.5241 57.3651 47.4295C57.3929 47.3349 57.4018 47.2358 57.3913 47.1378C57.3808 47.0398 57.351 46.9448 57.3038 46.8583C57.2565 46.7718 57.1927 46.6955 57.1159 46.6337Z" fill="#0C4370"/>
<path d="M38.2055 52.2999C38.1297 52.2348 38.0416 52.1855 37.9465 52.1549C37.8514 52.1243 37.7511 52.113 37.6515 52.1217C37.552 52.1304 37.4552 52.1589 37.3668 52.2056C37.2784 52.2522 37.2003 52.316 37.1369 52.3933C37.0735 52.4705 37.0262 52.5597 36.9978 52.6555C36.9694 52.7513 36.9604 52.8518 36.9713 52.9511C36.9823 53.0504 37.013 53.1466 37.0616 53.2338C37.1102 53.3211 37.1758 53.3978 37.2545 53.4594L39.455 55.2647C39.5883 55.3749 39.7559 55.4351 39.929 55.4349C40.0836 55.435 40.2345 55.3873 40.361 55.2983C40.4875 55.2093 40.5833 55.0834 40.6355 54.9378C40.6876 54.7922 40.6935 54.6341 40.6523 54.485C40.611 54.336 40.5248 54.2033 40.4052 54.1052L38.2055 52.2999Z" fill="#0C4370"/>
<path d="M33.7857 48.6924C33.6351 48.567 33.4413 48.5055 33.2459 48.5212C33.0505 48.5369 32.869 48.6285 32.7403 48.7763C32.6115 48.9242 32.5458 49.1165 32.5572 49.3122C32.5685 49.5079 32.656 49.6914 32.801 49.8234L34.8567 51.6129C34.9307 51.6798 35.0173 51.7313 35.1114 51.7644C35.2055 51.7974 35.3052 51.8114 35.4048 51.8054C35.5044 51.7995 35.6017 51.7737 35.6912 51.7297C35.7807 51.6856 35.8605 51.6241 35.926 51.5489C35.9914 51.4736 36.0412 51.386 36.0724 51.2913C36.1036 51.1965 36.1155 51.0965 36.1076 50.9971C36.0997 50.8977 36.072 50.8008 36.0261 50.7122C35.9803 50.6236 35.9173 50.5451 35.8407 50.4811L33.7857 48.6924Z" fill="#0C4370"/>
<path d="M44.5938 88.1875C68.6699 88.1875 88.1875 68.6699 88.1875 44.5938C88.1875 20.5176 68.6699 1 44.5938 1C20.5176 1 1 20.5176 1 44.5938C1 68.6699 20.5176 88.1875 44.5938 88.1875Z" stroke="#0C4370"/>
</svg>
