<svg width="89" height="89" viewBox="0 0 89 89" fill="none" xmlns="http://www.w3.org/2000/svg">
<path d="M45.64 41C45.4667 41.0053 45.3 41.0773 45.1773 41.2027L41.66 44.7093L39.4933 42.5493C38.8867 41.9173 37.9067 42.8933 38.54 43.4987L41.184 46.136C41.4467 46.3987 41.8733 46.3987 42.1373 46.136L46.1307 42.1533C46.5707 41.7267 46.2467 41 45.6413 41H45.64ZM25.6667 46.3333H29.6667C30.036 46.3333 30.3333 46.6307 30.3333 47C30.3333 47.3693 30.036 47.6667 29.6667 47.6667H25.6667C25.2973 47.6667 25 47.3693 25 47C25 46.6307 25.2973 46.3333 25.6667 46.3333ZM25.6667 41H29.6667C30.036 41 30.3333 41.2973 30.3333 41.6667C30.3333 42.036 30.036 42.3333 29.6667 42.3333H25.6667C25.2973 42.3333 25 42.036 25 41.6667C25 41.2973 25.2973 41 25.6667 41ZM25.6667 35.6667H29.6667C30.036 35.6667 30.3333 35.964 30.3333 36.3333C30.3333 36.7027 30.036 37 29.6667 37H25.6667C25.2973 37 25 36.7027 25 36.3333C25 35.964 25.2973 35.6667 25.6667 35.6667ZM57.6667 50.3333C55.8333 50.3333 54.3333 51.8333 54.3333 53.6667C54.3333 55.5 55.8333 57 57.6667 57C59.5 57 61 55.5 61 53.6667C61 51.8333 59.5 50.3333 57.6667 50.3333ZM57.6667 51.6667C58.7787 51.6667 59.6667 52.5547 59.6667 53.6667C59.6667 54.7787 58.7787 55.6667 57.6667 55.6667C56.5547 55.6667 55.6667 54.7787 55.6667 53.6667C55.6667 52.5547 56.5547 51.6667 57.6667 51.6667ZM40.3333 50.3333C38.5 50.3333 37 51.8333 37 53.6667C37 55.5 38.5 57 40.3333 57C42.1667 57 43.6667 55.5 43.6667 53.6667C43.6667 51.8333 42.1667 50.3333 40.3333 50.3333ZM40.3333 51.6667C41.4453 51.6667 42.3333 52.5547 42.3333 53.6667C42.3333 54.7787 41.4453 55.6667 40.3333 55.6667C39.2213 55.6667 38.3333 54.7787 38.3333 53.6667C38.3333 52.5547 39.2213 51.6667 40.3333 51.6667ZM33.6667 33C32.5707 33 31.6667 33.904 31.6667 35V49.6667C31.6667 50.7627 32.5707 51.6667 33.6667 51.6667H36.3333C37.2347 51.68 37.2347 50.32 36.3333 50.3333H33.6667C33.2853 50.3333 33 50.048 33 49.6667V35C33 34.6187 33.2853 34.3333 33.6667 34.3333H51C51.3813 34.3333 51.6667 34.6187 51.6667 35V50.3333H44.3333C43.4533 50.3333 43.4693 51.68 44.3333 51.6667H53.6667C54.5467 51.6667 54.5387 50.3333 53.6667 50.3333H53V38.3333H58.636L63.6667 46.1947V49.6667C63.6667 50.048 63.3813 50.3333 63 50.3333H61.6667C60.7947 50.3333 60.7947 51.6667 61.6667 51.6667H63C64.096 51.6667 65 50.7627 65 49.6667V46C65 45.8733 64.964 45.7467 64.896 45.64L59.5627 37.3067C59.44 37.116 59.2293 37 59 37H53V35C53 33.904 52.096 33 51 33H33.6667Z" fill="#0C4370"/>
<path d="M44.5938 88.1875C68.6699 88.1875 88.1875 68.6699 88.1875 44.5938C88.1875 20.5176 68.6699 1 44.5938 1C20.5176 1 1 20.5176 1 44.5938C1 68.6699 20.5176 88.1875 44.5938 88.1875Z" stroke="#0C4370"/>
</svg>
