<svg width="89" height="89" viewBox="0 0 89 89" fill="none" xmlns="http://www.w3.org/2000/svg">
<path d="M55.5209 51.6667V39.3334C55.5209 37.209 53.7911 35.4792 51.6667 35.4792H39.3334C37.2089 35.4792 35.5 37 35.4792 39.3334V51.6667C35.4792 53.7927 37.2089 55.5209 39.3334 55.5209H51.6667C53.7911 55.5209 55.5209 53.7927 55.5209 51.6667ZM36.5 51.6667V39.3334C36.5 38.0585 38.0584 36.5 39.3334 36.5H51.6667C52.9416 36.5 54.5 38.225 54.5 39.5V51.6667C54.5 52.9417 52.775 54.5 51.5 54.5H39.3334C38.0584 54.5 36.5 52.9417 36.5 51.6667Z" fill="#0C4370"/>
<path d="M41.4531 34.0655V32.3958C41.4531 31.9703 41.1078 31.625 40.6823 31.625C40.2568 31.625 39.9114 31.9703 39.9114 32.3958V34.0655C39.9114 34.491 40.2568 34.8363 40.6823 34.8363C41.1078 34.8363 41.4531 34.4925 41.4531 34.0655Z" fill="#0C4370"/>
<path d="M46.2709 34.0655V32.3958C46.2709 31.9703 45.9255 31.625 45.5 31.625C45.0745 31.625 44.7292 31.9703 44.7292 32.3958V34.0655C44.7292 34.491 45.0745 34.8363 45.5 34.8363C45.9255 34.8363 46.2709 34.4925 46.2709 34.0655Z" fill="#0C4370"/>
<path d="M51.0885 34.0655V32.3958C51.0885 31.9703 50.7432 31.625 50.3177 31.625C49.8922 31.625 49.5469 31.9703 49.5469 32.3958V34.0655C49.5469 34.491 49.8922 34.8363 50.3177 34.8363C50.7432 34.8363 51.0885 34.4925 51.0885 34.0655Z" fill="#0C4370"/>
<path d="M39.9114 56.9347V58.6043C39.9114 59.0298 40.2568 59.3751 40.6823 59.3751C41.1078 59.3751 41.4531 59.0298 41.4531 58.6043V56.9347C41.4531 56.5092 41.1078 56.1638 40.6823 56.1638C40.2568 56.1638 39.9114 56.5092 39.9114 56.9347Z" fill="#0C4370"/>
<path d="M44.7292 56.9347V58.6043C44.7292 59.0298 45.0745 59.3751 45.5 59.3751C45.9255 59.3751 46.2709 59.0298 46.2709 58.6043V56.9347C46.2709 56.5092 45.9255 56.1638 45.5 56.1638C45.0745 56.1638 44.7292 56.5092 44.7292 56.9347Z" fill="#0C4370"/>
<path d="M49.5469 56.9347V58.6043C49.5469 59.0298 49.8922 59.3751 50.3177 59.3751C50.7432 59.3751 51.0885 59.0298 51.0885 58.6043V56.9347C51.0885 56.5092 50.7432 56.1638 50.3177 56.1638C49.8922 56.1638 49.5469 56.5092 49.5469 56.9347Z" fill="#0C4370"/>
<path d="M58.6042 39.9114H56.9345C56.509 39.9114 56.1637 40.2567 56.1637 40.6822C56.1637 41.1077 56.509 41.453 56.9345 41.453H58.6042C59.0297 41.453 59.375 41.1077 59.375 40.6822C59.375 40.2567 59.0297 39.9114 58.6042 39.9114Z" fill="#0C4370"/>
<path d="M58.6042 44.7292H56.9345C56.509 44.7292 56.1637 45.0746 56.1637 45.5001C56.1637 45.9256 56.509 46.2709 56.9345 46.2709H58.6042C59.0297 46.2709 59.375 45.9256 59.375 45.5001C59.375 45.0746 59.0297 44.7292 58.6042 44.7292Z" fill="#0C4370"/>
<path d="M58.6042 49.5469H56.9345C56.509 49.5469 56.1637 49.8922 56.1637 50.3177C56.1637 50.7432 56.509 51.0885 56.9345 51.0885H58.6042C59.0297 51.0885 59.375 50.7432 59.375 50.3177C59.375 49.8922 59.0297 49.5469 58.6042 49.5469Z" fill="#0C4370"/>
<path d="M32.3958 41.453H34.0655C34.491 41.453 34.8363 41.1077 34.8363 40.6822C34.8363 40.2567 34.491 39.9114 34.0655 39.9114H32.3958C31.9703 39.9114 31.625 40.2567 31.625 40.6822C31.625 41.1077 31.9703 41.453 32.3958 41.453Z" fill="#0C4370"/>
<path d="M32.3958 46.2709H34.0655C34.491 46.2709 34.8363 45.9256 34.8363 45.5001C34.8363 45.0746 34.491 44.7292 34.0655 44.7292H32.3958C31.9703 44.7292 31.625 45.0746 31.625 45.5001C31.625 45.9256 31.9703 46.2709 32.3958 46.2709Z" fill="#0C4370"/>
<path d="M34.8363 50.3177C34.8363 49.8922 34.491 49.5469 34.0655 49.5469H32.3958C31.9703 49.5469 31.625 49.8922 31.625 50.3177C31.625 50.7432 31.9703 51.0885 32.3958 51.0885H34.0655C34.4925 51.0885 34.8363 50.7432 34.8363 50.3177Z" fill="#0C4370"/>
<path d="M48.257 44.5L48.6334 42.415L50.1398 44.5H48.257ZM48.1194 45H50.0537L46.3779 48.929L48.1194 45ZM42.8804 45L44.6218 48.929L40.9455 45H42.8804ZM42.7428 44.5H40.86L42.3663 42.415L42.7428 44.5ZM43.2254 44.1325L42.8403 42H44.9582L43.2254 44.1325ZM46.0415 42H48.1595L47.7743 44.1325L46.0415 42ZM43.604 44.5L45.4999 42.1665L47.3957 44.5H43.604ZM47.5338 45L45.4999 49.59L43.4659 45H47.5338ZM50.871 44.6115L48.7044 41.6115C48.7038 41.6105 48.7022 41.61 48.7017 41.609C48.6789 41.5785 48.6491 41.5535 48.6134 41.535C48.6031 41.5295 48.5917 41.528 48.5814 41.5235C48.5619 41.5165 48.5446 41.5065 48.5235 41.5035C48.5148 41.502 48.5061 41.505 48.4969 41.504C48.491 41.504 48.4855 41.5 48.479 41.5H42.5207C42.5142 41.5 42.5088 41.504 42.5023 41.504C42.4936 41.505 42.4855 41.502 42.4763 41.5035C42.4552 41.5065 42.4378 41.5165 42.4189 41.5235C42.408 41.528 42.3967 41.5295 42.3869 41.535C42.3512 41.5535 42.3208 41.5785 42.2986 41.609C42.2975 41.61 42.2965 41.6105 42.2954 41.6115L40.1287 44.6115C40.0615 44.705 40.0697 44.8285 40.1493 44.9135L45.2951 50.4135C45.3065 50.426 45.3222 50.4315 45.3358 50.4415C45.3477 50.45 45.358 50.4595 45.3715 50.466C45.4522 50.507 45.5475 50.507 45.6283 50.466C45.6418 50.4595 45.6521 50.45 45.664 50.4415C45.6775 50.4315 45.6933 50.426 45.7052 50.4135L50.851 44.9135C50.9306 44.8285 50.9388 44.705 50.871 44.6115Z" fill="#0C4370"/>
<path d="M44.5938 88.1875C68.6699 88.1875 88.1875 68.6699 88.1875 44.5938C88.1875 20.5176 68.6699 1 44.5938 1C20.5176 1 1 20.5176 1 44.5938C1 68.6699 20.5176 88.1875 44.5938 88.1875Z" stroke="#0C4370"/>
</svg>
