<svg width="89" height="89" viewBox="0 0 89 89" fill="none" xmlns="http://www.w3.org/2000/svg">
<path d="M45.5 28H41.4073V31.3871C40.3629 31.6976 39.375 32.0927 38.4153 32.629L36.0161 30.2298L30.2298 36.0161L32.629 38.4153C32.0927 39.375 31.6976 40.3629 31.3871 41.4073H28V49.5927H31.3871C31.6976 50.6371 32.0927 51.625 32.629 52.5847L30.2298 54.9839L36.0161 60.7702L38.4153 58.371C39.375 58.9073 40.3629 59.3024 41.4073 59.6129V63H45.5C55.1532 63 63 55.1532 63 45.5C63 35.8468 55.1532 28 45.5 28ZM45.5 61.871H42.5363V58.7379L42.1129 58.625C40.8992 58.3145 39.7137 57.8347 38.6129 57.1855L38.246 56.9597L36.0161 59.1895L31.8387 54.9839L34.0685 52.754L33.8427 52.3871C33.1935 51.2863 32.7137 50.1008 32.4032 48.8871L32.2903 48.4637H29.129V42.5363H32.2621L32.375 42.1129C32.6855 40.8992 33.1653 39.7137 33.8145 38.6129L34.0403 38.246L31.8105 36.0161L35.9879 31.8387L38.2177 34.0685L38.5847 33.8427C39.6855 33.1935 40.871 32.7137 42.0847 32.4032L42.5081 32.2903V29.129H45.5C54.5323 29.129 61.871 36.4677 61.871 45.5C61.871 54.5323 54.5323 61.871 45.5 61.871Z" fill="#0C4370"/>
<path d="M53.2903 36.9192L45.5 44.7095L43.8912 43.1006L43.1008 43.891L44.7097 45.4998L43.1008 47.1087L43.8912 47.899L45.5 46.2902L50.2984 51.0885L51.0887 50.2982L46.2903 45.4998L54.0807 37.7095L53.2903 36.9192Z" fill="#0C4370"/>
<path d="M45.5 53.4033C41.1533 53.4033 37.5968 49.8468 37.5968 45.5C37.5968 41.1533 41.1533 37.5968 45.5 37.5968V36.4678C40.5323 36.4678 36.4678 40.5323 36.4678 45.5C36.4678 50.4678 40.5323 54.5323 45.5 54.5323V53.4033Z" fill="#0C4370"/>
<path d="M46.0645 33.73H44.9355V34.6614H46.0645V33.73Z" fill="#0C4370"/>
<path d="M57.2419 44.9355H56.3105V46.0646H57.2419V44.9355Z" fill="#0C4370"/>
<path d="M46.0645 56.3105H44.9355V57.242H46.0645V56.3105Z" fill="#0C4370"/>
<path d="M44.5938 88.1875C68.6699 88.1875 88.1875 68.6699 88.1875 44.5938C88.1875 20.5176 68.6699 1 44.5938 1C20.5176 1 1 20.5176 1 44.5938C1 68.6699 20.5176 88.1875 44.5938 88.1875Z" stroke="#0C4370"/>
</svg>
