<svg width="89" height="89" viewBox="0 0 89 89" fill="none" xmlns="http://www.w3.org/2000/svg">
<path d="M44.5938 88.1875C68.6699 88.1875 88.1875 68.6699 88.1875 44.5938C88.1875 20.5176 68.6699 1 44.5938 1C20.5176 1 1 20.5176 1 44.5938C1 68.6699 20.5176 88.1875 44.5938 88.1875Z" stroke="#0C4370"/>
<path d="M58.5323 33.9839L52.5484 28H32V63H58.5323V33.9839ZM52.8871 29.9194L56.6129 33.6452H52.8871V29.9194ZM33.129 61.871V29.129H51.7581V34.7742H57.4032V61.871H33.129Z" fill="#0C4370"/>
<path d="M52.3226 46.2621L53.5645 45.0202L50.2903 41.6896L49.0201 42.9597C48.6532 42.7621 48.258 42.5928 47.8629 42.4799V40.7017H43.2339V42.4799C42.8387 42.621 42.4435 42.7621 42.0766 42.9597L40.8347 41.7178L37.504 44.992L38.746 46.2339C38.5484 46.6009 38.379 46.996 38.2661 47.3912H36.5161V52.0484H38.2943C38.4355 52.4436 38.5766 52.8388 38.7742 53.2057L37.5322 54.4476L40.8347 57.75L42.0766 56.5081C42.4435 56.7057 42.8387 56.875 43.2339 56.9879V58.7662H47.8911V56.9879C48.2863 56.8468 48.6814 56.7057 49.0484 56.5081L50.2903 57.75L53.5927 54.4476L52.3226 53.2057C52.5201 52.8388 52.6895 52.4436 52.8024 52.0484H54.5806V47.4194H52.8024C52.6895 46.996 52.5201 46.6291 52.3226 46.2621ZM53.4516 50.9476H51.9556L51.8427 51.371C51.7016 51.9638 51.4476 52.5283 51.1371 53.0363L50.9113 53.4033L51.9839 54.4759L50.2903 56.1694L49.2177 55.0968L48.8508 55.3226C48.3145 55.6331 47.75 55.8589 47.1855 56.0283L46.7621 56.1412V57.6371H44.3629V56.1412L43.9395 56.0283C43.3468 55.8871 42.7822 55.6331 42.2742 55.3226L41.879 55.0968L40.8064 56.1694L39.1129 54.4759L40.1855 53.4033L39.9597 53.0363C39.6492 52.5 39.4234 51.9355 39.254 51.371L39.1411 50.9476H37.6451V48.5484H39.1411L39.254 48.125C39.3951 47.5323 39.6492 46.9678 39.9597 46.4597L40.1855 46.0646L39.1129 44.992L40.8064 43.2984L41.879 44.371L42.246 44.1452C42.7822 43.8347 43.3468 43.6089 43.9113 43.4396L44.3347 43.3267V41.8307H46.7339V43.3267L47.1572 43.4396C47.75 43.5807 48.3145 43.8347 48.8226 44.1452L49.2177 44.371L50.2903 43.2984L51.9839 44.992L50.9113 46.0646L51.1371 46.4315C51.4476 46.9678 51.6734 47.5323 51.8427 48.0968L51.9556 48.5202H53.4516V50.9476Z" fill="#0C4370"/>
<path d="M45.5484 45.6411C43.2903 45.6411 41.4556 47.4758 41.4556 49.7339C41.4556 51.9919 43.2903 53.8266 45.5484 53.8266C47.8064 53.8266 49.6411 51.9919 49.6411 49.7339C49.6411 47.4758 47.8064 45.6411 45.5484 45.6411ZM45.5484 52.6976C43.9113 52.6976 42.5847 51.371 42.5847 49.7339C42.5847 48.0968 43.9113 46.7701 45.5484 46.7701C47.1855 46.7701 48.5121 48.0968 48.5121 49.7339C48.5121 51.371 47.1855 52.6976 45.5484 52.6976Z" fill="#0C4370"/>
</svg>
