<svg width="45" height="45" viewBox="0 0 45 45" fill="none" xmlns="http://www.w3.org/2000/svg">
<g clip-path="url(#clip0_151_3)">
<path d="M38.7176 3.40663C38.2997 3.02264 37.7523 2.81046 37.1848 2.81249H25.9348C25.805 2.17423 25.5036 1.58348 25.0629 1.10389C24.732 0.751085 24.3315 0.470801 23.8867 0.280783C23.442 0.0907641 22.9626 -0.00485124 22.4789 -1.16627e-05V-1.16627e-05C21.6619 -0.0135289 20.8662 0.260849 20.2311 0.775059C19.5961 1.28927 19.1622 2.01053 19.0055 2.81249H7.73438C7.17493 2.81249 6.63841 3.03473 6.24282 3.43031C5.84724 3.82589 5.625 4.36242 5.625 4.92186V42.8906C5.625 43.4501 5.84724 43.9866 6.24282 44.3822C6.63841 44.7778 7.17493 45 7.73438 45H37.2656C37.5434 45.0028 37.819 44.9502 38.0762 44.8452C38.3334 44.7402 38.567 44.5849 38.7635 44.3885C38.9599 44.192 39.1152 43.9584 39.2202 43.7012C39.3252 43.444 39.3778 43.1684 39.375 42.8906V4.92186C39.3761 4.63758 39.3182 4.35615 39.2051 4.09535C39.0919 3.83455 38.9259 3.60004 38.7176 3.40663V3.40663ZM19.6383 4.21874C19.8248 4.21874 20.0036 4.14466 20.1355 4.0128C20.2673 3.88094 20.3414 3.70209 20.3414 3.51561C20.337 3.23501 20.3895 2.95642 20.4957 2.69666C20.602 2.4369 20.7597 2.20135 20.9595 2.00423C21.1592 1.8071 21.3968 1.65249 21.658 1.54971C21.9191 1.44694 22.1984 1.39813 22.4789 1.40624V1.40624C22.7717 1.39794 23.0629 1.45194 23.3332 1.56468C23.6035 1.67741 23.8468 1.84629 24.0469 2.06014C24.4078 2.45909 24.6082 2.9776 24.6094 3.51561C24.6094 3.70209 24.6835 3.88094 24.8153 4.0128C24.9472 4.14466 25.126 4.21874 25.3125 4.21874H29.5312V8.43749H15.4688V4.21874H19.6383ZM37.9688 42.8906C37.9688 43.0771 37.8947 43.2559 37.7628 43.3878C37.6309 43.5197 37.4521 43.5937 37.2656 43.5937H7.73438C7.54789 43.5937 7.36905 43.5197 7.23719 43.3878C7.10533 43.2559 7.03125 43.0771 7.03125 42.8906V4.92186C7.03125 4.73538 7.10533 4.55654 7.23719 4.42468C7.36905 4.29282 7.54789 4.21874 7.73438 4.21874H14.0625V9.14061C14.0625 9.32709 14.1366 9.50594 14.2684 9.6378C14.4003 9.76966 14.5791 9.84374 14.7656 9.84374H30.2344C30.4209 9.84374 30.5997 9.76966 30.7316 9.6378C30.8634 9.50594 30.9375 9.32709 30.9375 9.14061V4.21874H37.1848C37.396 4.21531 37.6007 4.29192 37.7578 4.43319C37.8254 4.49516 37.8792 4.57074 37.9156 4.65496C37.9519 4.73918 37.97 4.83014 37.9688 4.92186V42.8906Z" fill="black"/>
<path d="M34.4531 7.03125H33.0469C32.8604 7.03125 32.6816 7.10533 32.5497 7.23719C32.4178 7.36905 32.3438 7.54789 32.3438 7.73438C32.3438 7.92086 32.4178 8.0997 32.5497 8.23156C32.6816 8.36342 32.8604 8.4375 33.0469 8.4375H33.75V39.375H11.25V8.4375H11.9531C12.1396 8.4375 12.3184 8.36342 12.4503 8.23156C12.5822 8.0997 12.6562 7.92086 12.6562 7.73438C12.6562 7.54789 12.5822 7.36905 12.4503 7.23719C12.3184 7.10533 12.1396 7.03125 11.9531 7.03125H10.5469C10.3604 7.03125 10.1816 7.10533 10.0497 7.23719C9.91783 7.36905 9.84375 7.54789 9.84375 7.73438V40.0781C9.84375 40.2646 9.91783 40.4434 10.0497 40.5753C10.1816 40.7072 10.3604 40.7812 10.5469 40.7812H34.4531C34.6396 40.7812 34.8184 40.7072 34.9503 40.5753C35.0822 40.4434 35.1562 40.2646 35.1562 40.0781V7.73438C35.1562 7.54789 35.0822 7.36905 34.9503 7.23719C34.8184 7.10533 34.6396 7.03125 34.4531 7.03125Z" fill="black"/>
<path d="M23.2031 16.875H30.9375C31.124 16.875 31.3028 16.8009 31.4347 16.6691C31.5665 16.5372 31.6406 16.3584 31.6406 16.1719C31.6406 15.9854 31.5665 15.8066 31.4347 15.6747C31.3028 15.5428 31.124 15.4688 30.9375 15.4688H23.2031C23.0166 15.4688 22.8378 15.5428 22.7059 15.6747C22.5741 15.8066 22.5 15.9854 22.5 16.1719C22.5 16.3584 22.5741 16.5372 22.7059 16.6691C22.8378 16.8009 23.0166 16.875 23.2031 16.875Z" fill="black"/>
<path d="M23.2031 21.0938H28.8281C29.0146 21.0938 29.1934 21.0197 29.3253 20.8878C29.4572 20.7559 29.5312 20.5771 29.5312 20.3906C29.5312 20.2041 29.4572 20.0253 29.3253 19.8934C29.1934 19.7616 29.0146 19.6875 28.8281 19.6875H23.2031C23.0166 19.6875 22.8378 19.7616 22.7059 19.8934C22.5741 20.0253 22.5 20.2041 22.5 20.3906C22.5 20.5771 22.5741 20.7559 22.7059 20.8878C22.8378 21.0197 23.0166 21.0938 23.2031 21.0938Z" fill="black"/>
<path d="M16.1718 21.0235C16.3036 21.1543 16.4818 21.2276 16.6675 21.2274H16.6991C16.7998 21.226 16.8989 21.2029 16.9899 21.1599C17.0809 21.1168 17.1616 21.0547 17.2265 20.9778L20.9284 16.5235C20.9927 16.4536 21.0421 16.3713 21.0737 16.2818C21.1053 16.1922 21.1184 16.0972 21.1123 16.0024C21.1061 15.9077 21.0809 15.8151 21.038 15.7304C20.9951 15.6457 20.9355 15.5705 20.8628 15.5094C20.7901 15.4484 20.7058 15.4026 20.6149 15.3751C20.524 15.3475 20.4285 15.3386 20.3341 15.3489C20.2397 15.3592 20.1484 15.3886 20.0656 15.4352C19.9829 15.4818 19.9104 15.5446 19.8527 15.62L16.6218 19.4872L14.5581 17.427C14.4242 17.3061 14.2488 17.2412 14.0684 17.246C13.8879 17.2508 13.7163 17.3247 13.5889 17.4526C13.4614 17.5804 13.3881 17.7524 13.384 17.9328C13.3799 18.1133 13.4453 18.2884 13.5667 18.4219L16.1718 21.0235Z" fill="black"/>
<path d="M30.9375 26.7188H23.2031C23.0166 26.7188 22.8378 26.6447 22.7059 26.5128C22.5741 26.3809 22.5 26.2021 22.5 26.0156C22.5 25.8291 22.5741 25.6503 22.7059 25.5184C22.8378 25.3866 23.0166 25.3125 23.2031 25.3125H30.9375C31.124 25.3125 31.3028 25.3866 31.4347 25.5184C31.5665 25.6503 31.6406 25.8291 31.6406 26.0156C31.6406 26.2021 31.5665 26.3809 31.4347 26.5128C31.3028 26.6447 31.124 26.7188 30.9375 26.7188Z" fill="black"/>
<path d="M28.8281 30.9375H23.2031C23.0166 30.9375 22.8378 30.8634 22.7059 30.7316C22.5741 30.5997 22.5 30.4209 22.5 30.2344C22.5 30.0479 22.5741 29.8691 22.7059 29.7372C22.8378 29.6053 23.0166 29.5312 23.2031 29.5312H28.8281C29.0146 29.5312 29.1934 29.6053 29.3253 29.7372C29.4572 29.8691 29.5312 30.0479 29.5312 30.2344C29.5312 30.4209 29.4572 30.5997 29.3253 30.7316C29.1934 30.8634 29.0146 30.9375 28.8281 30.9375Z" fill="black"/>
<path d="M16.6677 31.0712C16.482 31.0713 16.3038 30.998 16.172 30.8673L13.5669 28.2622C13.4962 28.1984 13.4392 28.1208 13.3994 28.0343C13.3595 27.9478 13.3377 27.8541 13.3352 27.7589C13.3327 27.6637 13.3496 27.5689 13.3848 27.4804C13.42 27.3919 13.4728 27.3115 13.54 27.244C13.6073 27.1766 13.6875 27.1235 13.7759 27.0879C13.8642 27.0524 13.9589 27.0352 14.0541 27.0374C14.1494 27.0396 14.2431 27.0611 14.3298 27.1006C14.4165 27.1401 14.4942 27.1968 14.5583 27.2673L16.622 29.3274L19.8528 25.4603C19.9731 25.3176 20.1451 25.2286 20.331 25.2127C20.517 25.1969 20.7016 25.2556 20.8442 25.3759C20.9869 25.4962 21.0759 25.6682 21.0917 25.8541C21.1076 26.04 21.0489 26.2246 20.9286 26.3673L17.2266 30.8216C17.1637 30.8963 17.0858 30.9571 16.9981 31.0001C16.9103 31.0431 16.8145 31.0673 16.7169 31.0712H16.6677Z" fill="black"/>
</g>
<defs>
<clipPath id="clip0_151_3">
<rect width="45" height="45" fill="white"/>
</clipPath>
</defs>
</svg>
