<svg width="46" height="49" viewBox="0 0 46 49" fill="none" xmlns="http://www.w3.org/2000/svg">
<path d="M23 23C29.3513 23 34.5 17.8513 34.5 11.5C34.5 5.14873 29.3513 0 23 0C16.6487 0 11.5 5.14873 11.5 11.5C11.5 17.8513 16.6487 23 23 23Z" fill="#A2A2A2"/>
<path d="M46 48.875V37.375C46 35.65 45.1375 33.925 43.7 32.775C40.5375 30.1875 36.5125 28.4625 32.4875 27.3125C29.6125 26.45 26.45 25.875 23 25.875C19.8375 25.875 16.675 26.45 13.5125 27.3125C9.4875 28.4625 5.4625 30.475 2.3 32.775C0.862501 33.925 0 35.65 0 37.375V48.875H46Z" fill="#A2A2A2"/>
</svg>
