<svg width="46" height="52" viewBox="0 0 46 52" fill="none" xmlns="http://www.w3.org/2000/svg">
<path d="M18.125 0C17.694 0 17.2807 0.171205 16.976 0.475952C16.6712 0.780698 16.5 1.19402 16.5 1.625C16.5 2.05598 16.6712 2.4693 16.976 2.77405C17.2807 3.0788 17.694 3.25 18.125 3.25H19.75V6.7275C14.0575 7.55027 8.88776 10.4984 5.28101 14.9787C1.67426 19.459 -0.101872 25.139 0.309967 30.876C0.721806 36.6129 3.29106 41.981 7.50079 45.9001C11.7105 49.8193 17.2483 51.9988 23 52C27.3612 51.9998 31.6304 50.7461 35.2992 48.3882C38.968 46.0302 41.8818 42.6675 43.6934 38.7003C45.5051 34.7332 46.1382 30.329 45.5176 26.0122C44.8969 21.6954 43.0485 17.648 40.1925 14.352C40.2068 14.3392 40.2209 14.3262 40.2348 14.313L41.3853 13.1625L42.5325 14.313C42.6824 14.4682 42.8617 14.592 43.06 14.6772C43.2582 14.7623 43.4715 14.8072 43.6872 14.809C43.903 14.8109 44.117 14.7698 44.3167 14.6881C44.5164 14.6064 44.6978 14.4857 44.8504 14.3331C45.003 14.1806 45.1236 13.9991 45.2053 13.7994C45.287 13.5997 45.3282 13.3857 45.3263 13.17C45.3244 12.9542 45.2796 12.741 45.1944 12.5427C45.1093 12.3445 44.9855 12.1652 44.8303 12.0153L40.2348 7.4165C40.0849 7.2613 39.9055 7.1375 39.7073 7.05234C39.509 6.96717 39.2958 6.92234 39.08 6.92047C38.8643 6.91859 38.6503 6.95971 38.4506 7.04142C38.2509 7.12312 38.0694 7.24378 37.9169 7.39636C37.7643 7.54893 37.6436 7.73037 37.5619 7.93007C37.4802 8.12978 37.4391 8.34376 37.441 8.55953C37.4429 8.77529 37.4877 8.98853 37.5728 9.18678C37.658 9.38504 37.7818 9.56435 37.937 9.71425L39.0875 10.8647L37.937 12.0153C37.9239 12.0281 37.9109 12.0411 37.898 12.0543C34.6079 9.19676 30.5638 7.34844 26.25 6.73075V3.25H27.875C28.306 3.25 28.7193 3.0788 29.0241 2.77405C29.3288 2.4693 29.5 2.05598 29.5 1.625C29.5 1.19402 29.3288 0.780698 29.0241 0.475952C28.7193 0.171205 28.306 0 27.875 0L18.125 0ZM24.625 18.2V29.25C24.625 29.681 24.4538 30.0943 24.1491 30.399C23.8443 30.7038 23.431 30.875 23 30.875H11.625C11.194 30.875 10.7807 30.7038 10.476 30.399C10.1712 30.0943 10 29.681 10 29.25C10 28.819 10.1712 28.4057 10.476 28.101C10.7807 27.7962 11.194 27.625 11.625 27.625H21.375V18.2C21.375 17.769 21.5462 17.3557 21.851 17.051C22.1557 16.7462 22.569 16.575 23 16.575C23.431 16.575 23.8443 16.7462 24.1491 17.051C24.4538 17.3557 24.625 17.769 24.625 18.2V18.2Z" fill="#A2A2A2"/>
</svg>
